<svg xmlns="http://www.w3.org/2000/svg" viewBox="0 0 358.79 409.03"><defs><style>.cls-1{fill:#e4efd7;}.cls-1,.cls-2,.cls-3,.cls-4,.cls-5,.cls-6{opacity:0.5;}.cls-2{fill:#8bc36c;}.cls-3{fill:#6e8868;}.cls-4{fill:#1f2b52;}.cls-5,.cls-7{fill:#3aa063;}</style></defs><title>Recurso 1</title><g id="Capa_2" data-name="Capa 2"><g id="Capa_1-2" data-name="Capa 1"><path class="cls-1" d="M184.58,0S84.5-3.57,36,166.47c0,0-39.83,119.49,0,175.15S75.3,409,75.3,409H312.07c1.53,0,62-33.19,43.06-185.36S273.91,4.6,184.58,0Z"/><path class="cls-2" d="M13.23,239l20.43,25.54L54.6,223.67,74,269.11l23-32.17s27.57,110.3,2.55,149.62c0,0-10.72,15.83-25,22.47H51S0,407.5,0,310C0,310,4,252.26,13.23,239Z"/><path class="cls-2" d="M221.27,244.44l23.11,24.16,23.27-39.49,19.22,45,24.59-33.43S346.51,347.92,306.34,409H246.08S210.73,407.5,210.73,310C210.73,310,212.08,257.72,221.27,244.44Z"/><path class="cls-3" d="M251.24,113.54c0,28.93-7.82,53.6-18.79,63.07a15.24,15.24,0,0,1-10,4.16c-15.88,0-28.76-30.1-28.76-67.23S206.59,46.3,222.47,46.3a15,15,0,0,1,9.59,3.83C243.24,59.36,251.24,84.27,251.24,113.54Z"/><path class="cls-3" d="M133,161.82a10.54,10.54,0,0,1-4.92,1.25c-10.44,0-18.9-16.31-18.9-36.43,0-19.24,7.74-35,17.56-36.32a76.25,76.25,0,0,0-6,30.54C120.71,137.79,125.55,152.76,133,161.82Z"/><path class="cls-4" d="M251.24,113.54c0,28.93-7.82,53.6-18.79,63.07-12.83-11.14-21.72-35.35-21.72-63.41,0-27.79,8.71-51.79,21.33-63.07C243.24,59.36,251.24,84.27,251.24,113.54Z"/><path class="cls-4" d="M146.92,126.64c0,16.84-5.92,31-14,35.18-7.4-9.06-12.24-24-12.24-41a76.25,76.25,0,0,1,6-30.54,8.54,8.54,0,0,1,1.34-.1C138.46,90.22,146.92,106.53,146.92,126.64Z"/><path class="cls-5" d="M326.32,336c-.53,25.63-5.45,52-19.23,73h10.19c2.19-1.63,20.14-15.46,20.68-39.83A50.77,50.77,0,0,0,326.32,336Z"/><g class="cls-6"><path class="cls-7" d="M48,409h3a21.37,21.37,0,0,1-3.1-.43Z"/><path class="cls-7" d="M109.93,327.51c.63,23.18-1.71,45.4-10.4,59.05,0,0-10.72,15.83-25,22.47h34.84c2.18-1.63,20.13-15.46,20.68-39.83C130.57,345.1,113.66,330.46,109.93,327.51Z"/></g></g></g></svg>